<svg width="545" height="66" viewBox="0 0 545 66" fill="none" xmlns="http://www.w3.org/2000/svg">
<rect y="1" width="64" height="64" rx="16" fill="black"/>
<path d="M34.8531 25.9091H32.2515L29.0107 27.9609V30.4155L32.0086 28.5362H32.0853V39H34.8531V25.9091Z" fill="white"/>
<rect x="80" y="1" width="64" height="64" rx="16" fill="white" stroke="black" stroke-opacity="0.1"/>
<path d="M107.392 39H116.725V36.7372H111.227V36.6477L113.139 34.7749C115.83 32.3203 116.552 31.093 116.552 29.6037C116.552 27.3345 114.698 25.7301 111.892 25.7301C109.144 25.7301 107.258 27.3729 107.264 29.9425H109.891C109.885 28.6896 110.678 27.9226 111.873 27.9226C113.024 27.9226 113.88 28.6385 113.88 29.7891C113.88 30.831 113.241 31.5469 112.052 32.6911L107.392 37.0057V39Z" fill="black"/>
<rect x="160" y="1" width="64" height="64" rx="16" fill="white" stroke="black" stroke-opacity="0.1"/>
<path d="M191.967 39.179C194.908 39.179 197.011 37.5618 197.004 35.3246C197.011 33.6946 195.975 32.5312 194.051 32.2884V32.1861C195.515 31.924 196.525 30.8885 196.518 29.4183C196.525 27.3537 194.716 25.7301 192.006 25.7301C189.321 25.7301 187.301 27.3026 187.263 29.5653H189.915C189.947 28.5682 190.861 27.9226 191.993 27.9226C193.111 27.9226 193.859 28.6001 193.853 29.5845C193.859 30.6136 192.984 31.3104 191.724 31.3104H190.503V33.343H191.724C193.207 33.343 194.134 34.0845 194.128 35.1392C194.134 36.1811 193.239 36.897 191.974 36.897C190.753 36.897 189.839 36.2578 189.788 35.299H187.001C187.045 37.5874 189.091 39.179 191.967 39.179Z" fill="black"/>
<rect x="240" y="1" width="64" height="64" rx="16" fill="white" stroke="black" stroke-opacity="0.1"/>
<path d="M267.263 36.6989H273.547V39H276.193V36.6989H277.817V34.4808H276.193V25.9091H272.729L267.263 34.5192V36.6989ZM273.598 34.4808H270.05V34.3786L273.496 28.9261H273.598V34.4808Z" fill="black"/>
<rect x="320" y="1" width="64" height="64" rx="16" fill="white" stroke="black" stroke-opacity="0.1"/>
<path d="M352.042 39.179C354.956 39.179 356.938 37.2805 356.931 34.6342C356.938 32.1286 355.186 30.326 352.828 30.326C351.677 30.326 350.686 30.8054 350.226 31.451H350.15L350.488 28.1719H356.209V25.9091H348.206L347.586 32.8125L350.047 33.2536C350.45 32.7102 351.23 32.3714 352.003 32.3714C353.32 32.3778 354.266 33.3303 354.266 34.7045C354.266 36.0661 353.339 37.0057 352.042 37.0057C350.942 37.0057 350.054 36.3153 349.99 35.299H347.305C347.356 37.5618 349.331 39.179 352.042 39.179Z" fill="black"/>
<rect x="400" y="1" width="64" height="64" rx="16" fill="white" stroke="black" stroke-opacity="0.1"/>
<path d="M426.996 39.1662C427.814 39.1662 428.524 38.4822 428.53 37.6321C428.524 36.7947 427.814 36.1108 426.996 36.1108C426.153 36.1108 425.456 36.7947 425.462 37.6321C425.456 38.4822 426.153 39.1662 426.996 39.1662ZM431.998 39.1662C432.816 39.1662 433.525 38.4822 433.532 37.6321C433.525 36.7947 432.816 36.1108 431.998 36.1108C431.154 36.1108 430.457 36.7947 430.464 37.6321C430.457 38.4822 431.154 39.1662 431.998 39.1662ZM436.999 39.1662C437.817 39.1662 438.527 38.4822 438.533 37.6321C438.527 36.7947 437.817 36.1108 436.999 36.1108C436.155 36.1108 435.458 36.7947 435.465 37.6321C435.458 38.4822 436.155 39.1662 436.999 39.1662Z" fill="black"/>
<rect x="480" y="1" width="64" height="64" rx="16" fill="white" stroke="black" stroke-opacity="0.1"/>
<path d="M510 27V27C513.314 30.3137 513.314 35.6863 510 39V39" stroke="black" stroke-width="2" stroke-linecap="round" stroke-linejoin="round"/>
</svg>
