<svg width="400" height="600" viewBox="0 0 400 600" fill="none" xmlns="http://www.w3.org/2000/svg">
<rect width="400" height="600" rx="30" fill="#E7FAFE"/>
<path d="M57.9751 532.205C59.4979 532.205 60.2933 531.386 60.5661 530.818H60.6342V532H61.9751V526.25C61.9751 523.477 59.8615 523.159 58.7479 523.159C57.4297 523.159 55.9297 523.614 55.2479 525.205L56.5206 525.659C56.8161 525.023 57.5149 524.341 58.7933 524.341C60.0263 524.341 60.6342 524.994 60.6342 526.114V526.159C60.6342 526.807 59.9751 526.75 58.3842 526.955C56.7649 527.165 54.9979 527.523 54.9979 529.523C54.9979 531.227 56.3161 532.205 57.9751 532.205ZM58.1797 531C57.1115 531 56.3388 530.523 56.3388 529.591C56.3388 528.568 57.2706 528.25 58.3161 528.114C58.8842 528.045 60.407 527.886 60.6342 527.614V528.841C60.6342 529.932 59.7706 531 58.1797 531ZM67.718 532.182C69.3999 532.182 69.968 531.136 70.2635 530.659H70.4226V532H71.718V520.364H70.3771V524.659H70.2635C69.968 524.205 69.4453 523.159 67.7408 523.159C65.5362 523.159 64.0135 524.909 64.0135 527.659C64.0135 530.432 65.5362 532.182 67.718 532.182ZM67.8999 530.977C66.218 530.977 65.3544 529.5 65.3544 527.636C65.3544 525.795 66.1953 524.364 67.8999 524.364C69.5362 524.364 70.3999 525.682 70.3999 527.636C70.3999 529.614 69.5135 530.977 67.8999 530.977ZM74.3601 532H75.701V523.273H74.3601V532ZM75.0419 521.818C75.5646 521.818 75.9964 521.409 75.9964 520.909C75.9964 520.409 75.5646 520 75.0419 520C74.5192 520 74.0874 520.409 74.0874 520.909C74.0874 521.409 74.5192 521.818 75.0419 521.818ZM78.157 535.273H79.4979V530.659H79.6115C79.907 531.136 80.4751 532.182 82.157 532.182C84.3388 532.182 85.8615 530.432 85.8615 527.659C85.8615 524.909 84.3388 523.159 82.1342 523.159C80.4297 523.159 79.907 524.205 79.6115 524.659H79.4524V523.273H78.157V535.273ZM79.4751 527.636C79.4751 525.682 80.3388 524.364 81.9751 524.364C83.6797 524.364 84.5206 525.795 84.5206 527.636C84.5206 529.5 83.657 530.977 81.9751 530.977C80.3615 530.977 79.4751 529.614 79.4751 527.636ZM87.907 532H89.2479V523.273H87.907V532ZM88.5888 521.818C89.1115 521.818 89.5433 521.409 89.5433 520.909C89.5433 520.409 89.1115 520 88.5888 520C88.0661 520 87.6342 520.409 87.6342 520.909C87.6342 521.409 88.0661 521.818 88.5888 521.818ZM97.8857 525.227C97.4652 523.989 96.522 523.159 94.7947 523.159C92.9538 523.159 91.5902 524.205 91.5902 525.682C91.5902 526.886 92.3061 527.693 93.9084 528.068L95.3629 528.409C96.2436 528.614 96.6584 529.034 96.6584 529.636C96.6584 530.386 95.8629 531 94.6129 531C93.5163 531 92.8288 530.528 92.5902 529.591L91.3175 529.909C91.63 531.392 92.8516 532.182 94.6357 532.182C96.6641 532.182 98.0447 531.074 98.0447 529.568C98.0447 528.352 97.2834 527.585 95.7266 527.205L94.4311 526.886C93.397 526.631 92.9311 526.284 92.9311 525.614C92.9311 524.864 93.7266 524.318 94.7947 524.318C95.9652 524.318 96.4482 524.966 96.6811 525.568L97.8857 525.227ZM103.609 532.182C105.54 532.182 106.813 531 107.04 529.455H105.7C105.45 530.409 104.654 530.977 103.609 530.977C102.018 530.977 100.995 529.659 100.995 527.636C100.995 525.659 102.04 524.364 103.609 524.364C104.79 524.364 105.495 525.091 105.7 525.886H107.04C106.813 524.25 105.427 523.159 103.586 523.159C101.222 523.159 99.6541 525.023 99.6541 527.682C99.6541 530.295 101.154 532.182 103.609 532.182ZM109.001 532H110.342V523.273H109.001V532ZM109.683 521.818C110.205 521.818 110.637 521.409 110.637 520.909C110.637 520.409 110.205 520 109.683 520C109.16 520 108.728 520.409 108.728 520.909C108.728 521.409 109.16 521.818 109.683 521.818ZM114.138 526.75C114.138 525.227 115.082 524.364 116.366 524.364C117.61 524.364 118.366 525.176 118.366 526.545V532H119.707V526.455C119.707 524.227 118.519 523.159 116.752 523.159C115.434 523.159 114.616 523.75 114.207 524.636H114.093V523.273H112.798V532H114.138V526.75ZM125.68 535.455C127.771 535.455 129.452 534.5 129.452 532.25V523.273H128.157V524.659H128.021C127.725 524.205 127.18 523.159 125.475 523.159C123.271 523.159 121.748 524.909 121.748 527.591C121.748 530.318 123.339 531.864 125.452 531.864C127.157 531.864 127.702 530.864 127.998 530.386H128.112V532.159C128.112 533.614 127.089 534.273 125.68 534.273C124.094 534.273 123.538 533.438 123.18 532.955L122.112 533.705C122.657 534.619 123.731 535.455 125.68 535.455ZM125.634 530.659C123.952 530.659 123.089 529.386 123.089 527.568C123.089 525.795 123.93 524.364 125.634 524.364C127.271 524.364 128.134 525.682 128.134 527.568C128.134 529.5 127.248 530.659 125.634 530.659ZM140.066 532.182C141.839 532.182 143.134 531.295 143.543 529.977L142.248 529.614C141.907 530.523 141.117 530.977 140.066 530.977C138.492 530.977 137.407 529.96 137.344 528.091H143.68V527.523C143.68 524.273 141.748 523.159 139.93 523.159C137.566 523.159 135.998 525.023 135.998 527.705C135.998 530.386 137.543 532.182 140.066 532.182ZM137.344 526.932C137.435 525.574 138.396 524.364 139.93 524.364C141.384 524.364 142.316 525.455 142.316 526.932H137.344ZM147.06 520.364H145.719V532H147.06V520.364ZM149.516 532H150.857V523.273H149.516V532ZM150.198 521.818C150.721 521.818 151.153 521.409 151.153 520.909C151.153 520.409 150.721 520 150.198 520C149.675 520 149.244 520.409 149.244 520.909C149.244 521.409 149.675 521.818 150.198 521.818ZM157.109 523.273H155.245V521.182H153.904V523.273H152.586V524.409H153.904V529.864C153.904 531.386 155.131 532.114 156.268 532.114C156.768 532.114 157.086 532.023 157.268 531.955L156.995 530.75C156.881 530.773 156.7 530.818 156.404 530.818C155.813 530.818 155.245 530.636 155.245 529.5V524.409H157.109V523.273ZM161.126 530.409H159.671L159.603 531.045C159.438 532.585 159.114 534.119 158.967 534.841H159.989C160.262 534.068 160.842 532.318 161.035 531.023L161.126 530.409ZM174.292 525.227C173.871 523.989 172.928 523.159 171.201 523.159C169.36 523.159 167.996 524.205 167.996 525.682C167.996 526.886 168.712 527.693 170.315 528.068L171.769 528.409C172.65 528.614 173.065 529.034 173.065 529.636C173.065 530.386 172.269 531 171.019 531C169.923 531 169.235 530.528 168.996 529.591L167.724 529.909C168.036 531.392 169.258 532.182 171.042 532.182C173.07 532.182 174.451 531.074 174.451 529.568C174.451 528.352 173.69 527.585 172.133 527.205L170.837 526.886C169.803 526.631 169.337 526.284 169.337 525.614C169.337 524.864 170.133 524.318 171.201 524.318C172.371 524.318 172.854 524.966 173.087 525.568L174.292 525.227ZM180.129 532.182C181.901 532.182 183.197 531.295 183.606 529.977L182.31 529.614C181.969 530.523 181.18 530.977 180.129 530.977C178.555 530.977 177.469 529.96 177.407 528.091H183.742V527.523C183.742 524.273 181.81 523.159 179.992 523.159C177.629 523.159 176.06 525.023 176.06 527.705C176.06 530.386 177.606 532.182 180.129 532.182ZM177.407 526.932C177.498 525.574 178.458 524.364 179.992 524.364C181.447 524.364 182.379 525.455 182.379 526.932H177.407ZM189.077 532.182C190.759 532.182 191.327 531.136 191.623 530.659H191.782V532H193.077V520.364H191.737V524.659H191.623C191.327 524.205 190.805 523.159 189.1 523.159C186.896 523.159 185.373 524.909 185.373 527.659C185.373 530.432 186.896 532.182 189.077 532.182ZM189.259 530.977C187.577 530.977 186.714 529.5 186.714 527.636C186.714 525.795 187.555 524.364 189.259 524.364C190.896 524.364 191.759 525.682 191.759 527.636C191.759 529.614 190.873 530.977 189.259 530.977ZM203.515 532.182C205.197 532.182 205.765 531.136 206.06 530.659H206.219V532H207.515V520.364H206.174V524.659H206.06C205.765 524.205 205.242 523.159 203.538 523.159C201.333 523.159 199.81 524.909 199.81 527.659C199.81 530.432 201.333 532.182 203.515 532.182ZM203.697 530.977C202.015 530.977 201.151 529.5 201.151 527.636C201.151 525.795 201.992 524.364 203.697 524.364C205.333 524.364 206.197 525.682 206.197 527.636C206.197 529.614 205.31 530.977 203.697 530.977ZM213.702 532.182C216.066 532.182 217.657 530.386 217.657 527.682C217.657 524.955 216.066 523.159 213.702 523.159C211.339 523.159 209.748 524.955 209.748 527.682C209.748 530.386 211.339 532.182 213.702 532.182ZM213.702 530.977C211.907 530.977 211.089 529.432 211.089 527.682C211.089 525.932 211.907 524.364 213.702 524.364C215.498 524.364 216.316 525.932 216.316 527.682C216.316 529.432 215.498 530.977 213.702 530.977ZM227.863 532.182C229.636 532.182 230.931 531.295 231.34 529.977L230.045 529.614C229.704 530.523 228.914 530.977 227.863 530.977C226.289 530.977 225.204 529.96 225.141 528.091H231.477V527.523C231.477 524.273 229.545 523.159 227.727 523.159C225.363 523.159 223.795 525.023 223.795 527.705C223.795 530.386 225.34 532.182 227.863 532.182ZM225.141 526.932C225.232 525.574 226.192 524.364 227.727 524.364C229.181 524.364 230.113 525.455 230.113 526.932H225.141ZM233.516 532H234.857V523.273H233.516V532ZM234.198 521.818C234.721 521.818 235.153 521.409 235.153 520.909C235.153 520.409 234.721 520 234.198 520C233.675 520 233.244 520.409 233.244 520.909C233.244 521.409 233.675 521.818 234.198 521.818ZM242.813 528.432C242.813 530.068 241.563 530.818 240.563 530.818C239.45 530.818 238.654 530 238.654 528.727V523.273H237.313V528.818C237.313 531.045 238.495 532.114 240.131 532.114C241.45 532.114 242.313 531.409 242.722 530.523H242.813V532H244.154V523.273H242.813V528.432ZM252.792 525.227C252.371 523.989 251.428 523.159 249.701 523.159C247.86 523.159 246.496 524.205 246.496 525.682C246.496 526.886 247.212 527.693 248.815 528.068L250.269 528.409C251.15 528.614 251.565 529.034 251.565 529.636C251.565 530.386 250.769 531 249.519 531C248.423 531 247.735 530.528 247.496 529.591L246.224 529.909C246.536 531.392 247.758 532.182 249.542 532.182C251.57 532.182 252.951 531.074 252.951 529.568C252.951 528.352 252.19 527.585 250.633 527.205L249.337 526.886C248.303 526.631 247.837 526.284 247.837 525.614C247.837 524.864 248.633 524.318 249.701 524.318C250.871 524.318 251.354 524.966 251.587 525.568L252.792 525.227ZM254.969 532H256.31V526.545C256.31 525.267 257.242 524.364 258.288 524.364C259.305 524.364 260.015 525.028 260.015 526.023V532H261.379V526.318C261.379 525.193 262.083 524.364 263.31 524.364C264.265 524.364 265.083 524.869 265.083 526.159V532H266.424V526.159C266.424 524.108 265.322 523.159 263.765 523.159C262.515 523.159 261.6 523.733 261.151 524.636H261.06C260.629 523.705 259.867 523.159 258.719 523.159C257.583 523.159 256.742 523.705 256.379 524.636H256.265V523.273H254.969V532ZM272.421 532.182C274.785 532.182 276.376 530.386 276.376 527.682C276.376 524.955 274.785 523.159 272.421 523.159C270.058 523.159 268.467 524.955 268.467 527.682C268.467 530.386 270.058 532.182 272.421 532.182ZM272.421 530.977C270.626 530.977 269.808 529.432 269.808 527.682C269.808 525.932 270.626 524.364 272.421 524.364C274.217 524.364 275.035 525.932 275.035 527.682C275.035 529.432 274.217 530.977 272.421 530.977ZM281.718 532.182C283.4 532.182 283.968 531.136 284.263 530.659H284.423V532H285.718V520.364H284.377V524.659H284.263C283.968 524.205 283.445 523.159 281.741 523.159C279.536 523.159 278.013 524.909 278.013 527.659C278.013 530.432 279.536 532.182 281.718 532.182ZM281.9 530.977C280.218 530.977 279.354 529.5 279.354 527.636C279.354 525.795 280.195 524.364 281.9 524.364C283.536 524.364 284.4 525.682 284.4 527.636C284.4 529.614 283.513 530.977 281.9 530.977ZM296.656 523.273H294.792V521.182H293.451V523.273H292.133V524.409H293.451V529.864C293.451 531.386 294.678 532.114 295.815 532.114C296.315 532.114 296.633 532.023 296.815 531.955L296.542 530.75C296.428 530.773 296.246 530.818 295.951 530.818C295.36 530.818 294.792 530.636 294.792 529.5V524.409H296.656V523.273ZM302.238 532.182C304.011 532.182 305.306 531.295 305.715 529.977L304.42 529.614C304.079 530.523 303.289 530.977 302.238 530.977C300.664 530.977 299.579 529.96 299.516 528.091H305.852V527.523C305.852 524.273 303.92 523.159 302.102 523.159C299.738 523.159 298.17 525.023 298.17 527.705C298.17 530.386 299.715 532.182 302.238 532.182ZM299.516 526.932C299.607 525.574 300.567 524.364 302.102 524.364C303.556 524.364 304.488 525.455 304.488 526.932H299.516ZM307.891 532H309.232V526.545C309.232 525.267 310.164 524.364 311.21 524.364C312.227 524.364 312.937 525.028 312.937 526.023V532H314.3V526.318C314.3 525.193 315.005 524.364 316.232 524.364C317.187 524.364 318.005 524.869 318.005 526.159V532H319.346V526.159C319.346 524.108 318.244 523.159 316.687 523.159C315.437 523.159 314.522 523.733 314.073 524.636H313.982C313.55 523.705 312.789 523.159 311.641 523.159C310.505 523.159 309.664 523.705 309.3 524.636H309.187V523.273H307.891V532ZM321.798 535.273H323.138V530.659H323.252C323.548 531.136 324.116 532.182 325.798 532.182C327.979 532.182 329.502 530.432 329.502 527.659C329.502 524.909 327.979 523.159 325.775 523.159C324.07 523.159 323.548 524.205 323.252 524.659H323.093V523.273H321.798V535.273ZM323.116 527.636C323.116 525.682 323.979 524.364 325.616 524.364C327.32 524.364 328.161 525.795 328.161 527.636C328.161 529.5 327.298 530.977 325.616 530.977C324.002 530.977 323.116 529.614 323.116 527.636ZM335.093 532.182C337.457 532.182 339.048 530.386 339.048 527.682C339.048 524.955 337.457 523.159 335.093 523.159C332.729 523.159 331.138 524.955 331.138 527.682C331.138 530.386 332.729 532.182 335.093 532.182ZM335.093 530.977C333.298 530.977 332.479 529.432 332.479 527.682C332.479 525.932 333.298 524.364 335.093 524.364C336.888 524.364 337.707 525.932 337.707 527.682C337.707 529.432 336.888 530.977 335.093 530.977ZM341.094 532H342.435V526.477C342.435 525.295 343.367 524.432 344.64 524.432C344.998 524.432 345.367 524.5 345.458 524.523V523.159C345.305 523.148 344.952 523.136 344.754 523.136C343.708 523.136 342.799 523.727 342.481 524.591H342.39V523.273H341.094V532ZM37.9695 560H39.3104V551.273H37.9695V560ZM38.6513 549.818C39.174 549.818 39.6058 549.409 39.6058 548.909C39.6058 548.409 39.174 548 38.6513 548C38.1286 548 37.6967 548.409 37.6967 548.909C37.6967 549.409 38.1286 549.818 38.6513 549.818ZM43.1072 554.75C43.1072 553.227 44.0504 552.364 45.3345 552.364C46.5788 552.364 47.3345 553.176 47.3345 554.545V560H48.6754V554.455C48.6754 552.227 47.4879 551.159 45.7209 551.159C44.4027 551.159 43.5845 551.75 43.1754 552.636H43.0618V551.273H41.7663V560H43.1072V554.75ZM54.6712 560.182C56.603 560.182 57.8757 559 58.103 557.455H56.7621C56.5121 558.409 55.7166 558.977 54.6712 558.977C53.0803 558.977 52.0575 557.659 52.0575 555.636C52.0575 553.659 53.103 552.364 54.6712 552.364C55.853 552.364 56.5575 553.091 56.7621 553.886H58.103C57.8757 552.25 56.4893 551.159 54.6484 551.159C52.2848 551.159 50.7166 553.023 50.7166 555.682C50.7166 558.295 52.2166 560.182 54.6712 560.182ZM60.0632 560H61.4041V551.273H60.0632V560ZM60.745 549.818C61.2678 549.818 61.6996 549.409 61.6996 548.909C61.6996 548.409 61.2678 548 60.745 548C60.2223 548 59.7905 548.409 59.7905 548.909C59.7905 549.409 60.2223 549.818 60.745 549.818ZM67.1555 560.182C68.8374 560.182 69.4055 559.136 69.701 558.659H69.8601V560H71.1555V548.364H69.8146V552.659H69.701C69.4055 552.205 68.8828 551.159 67.1783 551.159C64.9737 551.159 63.451 552.909 63.451 555.659C63.451 558.432 64.9737 560.182 67.1555 560.182ZM67.3374 558.977C65.6555 558.977 64.7919 557.5 64.7919 555.636C64.7919 553.795 65.6328 552.364 67.3374 552.364C68.9737 552.364 69.8374 553.682 69.8374 555.636C69.8374 557.614 68.951 558.977 67.3374 558.977ZM73.7976 560H75.1385V551.273H73.7976V560ZM74.4794 549.818C75.0021 549.818 75.4339 549.409 75.4339 548.909C75.4339 548.409 75.0021 548 74.4794 548C73.9567 548 73.5249 548.409 73.5249 548.909C73.5249 549.409 73.9567 549.818 74.4794 549.818ZM80.8899 560.182C82.5717 560.182 83.1399 559.136 83.4354 558.659H83.5945V560H84.8899V548.364H83.549V552.659H83.4354C83.1399 552.205 82.6172 551.159 80.9126 551.159C78.7081 551.159 77.1854 552.909 77.1854 555.659C77.1854 558.432 78.7081 560.182 80.8899 560.182ZM81.0717 558.977C79.3899 558.977 78.5263 557.5 78.5263 555.636C78.5263 553.795 79.3672 552.364 81.0717 552.364C82.7081 552.364 83.5717 553.682 83.5717 555.636C83.5717 557.614 82.6854 558.977 81.0717 558.977ZM93.032 556.432C93.032 558.068 91.782 558.818 90.782 558.818C89.6683 558.818 88.8729 558 88.8729 556.727V551.273H87.532V556.818C87.532 559.045 88.7138 560.114 90.3501 560.114C91.6683 560.114 92.532 559.409 92.9411 558.523H93.032V560H94.3729V551.273H93.032V556.432ZM98.1697 554.75C98.1697 553.227 99.1129 552.364 100.397 552.364C101.641 552.364 102.397 553.176 102.397 554.545V560H103.738V554.455C103.738 552.227 102.55 551.159 100.783 551.159C99.4652 551.159 98.647 551.75 98.2379 552.636H98.1243V551.273H96.8288V560H98.1697V554.75ZM109.984 551.273H108.12V549.182H106.779V551.273H105.461V552.409H106.779V557.864C106.779 559.386 108.006 560.114 109.143 560.114C109.643 560.114 109.961 560.023 110.143 559.955L109.87 558.75C109.756 558.773 109.575 558.818 109.279 558.818C108.688 558.818 108.12 558.636 108.12 557.5V552.409H109.984V551.273ZM122.001 556.432C122.001 558.068 120.751 558.818 119.751 558.818C118.637 558.818 117.842 558 117.842 556.727V551.273H116.501V556.818C116.501 559.045 117.683 560.114 119.319 560.114C120.637 560.114 121.501 559.409 121.91 558.523H122.001V560H123.342V551.273H122.001V556.432ZM129.593 551.273H127.729V549.182H126.388V551.273H125.07V552.409H126.388V557.864C126.388 559.386 127.616 560.114 128.752 560.114C129.252 560.114 129.57 560.023 129.752 559.955L129.479 558.75C129.366 558.773 129.184 558.818 128.888 558.818C128.298 558.818 127.729 558.636 127.729 557.5V552.409H129.593V551.273ZM137.451 548.364H136.11V560H137.451V548.364ZM142.475 560.205C143.998 560.205 144.793 559.386 145.066 558.818H145.134V560H146.475V554.25C146.475 551.477 144.362 551.159 143.248 551.159C141.93 551.159 140.43 551.614 139.748 553.205L141.021 553.659C141.316 553.023 142.015 552.341 143.293 552.341C144.526 552.341 145.134 552.994 145.134 554.114V554.159C145.134 554.807 144.475 554.75 142.884 554.955C141.265 555.165 139.498 555.523 139.498 557.523C139.498 559.227 140.816 560.205 142.475 560.205ZM142.68 559C141.612 559 140.839 558.523 140.839 557.591C140.839 556.568 141.771 556.25 142.816 556.114C143.384 556.045 144.907 555.886 145.134 555.614V556.841C145.134 557.932 144.271 559 142.68 559ZM149.104 560H150.4V558.659H150.559C150.854 559.136 151.423 560.182 153.104 560.182C155.286 560.182 156.809 558.432 156.809 555.659C156.809 552.909 155.286 551.159 153.082 551.159C151.377 551.159 150.854 552.205 150.559 552.659H150.445V548.364H149.104V560ZM150.423 555.636C150.423 553.682 151.286 552.364 152.923 552.364C154.627 552.364 155.468 553.795 155.468 555.636C155.468 557.5 154.604 558.977 152.923 558.977C151.309 558.977 150.423 557.614 150.423 555.636ZM162.406 560.182C164.769 560.182 166.36 558.386 166.36 555.682C166.36 552.955 164.769 551.159 162.406 551.159C160.042 551.159 158.451 552.955 158.451 555.682C158.451 558.386 160.042 560.182 162.406 560.182ZM162.406 558.977C160.61 558.977 159.792 557.432 159.792 555.682C159.792 553.932 160.61 552.364 162.406 552.364C164.201 552.364 165.019 553.932 165.019 555.682C165.019 557.432 164.201 558.977 162.406 558.977ZM168.407 560H169.748V554.477C169.748 553.295 170.68 552.432 171.952 552.432C172.31 552.432 172.68 552.5 172.771 552.523V551.159C172.617 551.148 172.265 551.136 172.066 551.136C171.021 551.136 170.112 551.727 169.793 552.591H169.702V551.273H168.407V560ZM177.754 560.182C179.526 560.182 180.822 559.295 181.231 557.977L179.935 557.614C179.594 558.523 178.805 558.977 177.754 558.977C176.18 558.977 175.094 557.96 175.032 556.091H181.367V555.523C181.367 552.273 179.435 551.159 177.617 551.159C175.254 551.159 173.685 553.023 173.685 555.705C173.685 558.386 175.231 560.182 177.754 560.182ZM175.032 554.932C175.123 553.574 176.083 552.364 177.617 552.364C179.072 552.364 180.004 553.455 180.004 554.932H175.032ZM191.566 560.182C193.339 560.182 194.634 559.295 195.043 557.977L193.748 557.614C193.407 558.523 192.617 558.977 191.566 558.977C189.992 558.977 188.907 557.96 188.844 556.091H195.18V555.523C195.18 552.273 193.248 551.159 191.43 551.159C189.066 551.159 187.498 553.023 187.498 555.705C187.498 558.386 189.043 560.182 191.566 560.182ZM188.844 554.932C188.935 553.574 189.896 552.364 191.43 552.364C192.884 552.364 193.816 553.455 193.816 554.932H188.844ZM201.015 551.273H199.151V549.182H197.81V551.273H196.492V552.409H197.81V557.864C197.81 559.386 199.038 560.114 200.174 560.114C200.674 560.114 200.992 560.023 201.174 559.955L200.901 558.75C200.788 558.773 200.606 558.818 200.31 558.818C199.719 558.818 199.151 558.636 199.151 557.5V552.409H201.015V551.273ZM210.827 560.182C212.509 560.182 213.077 559.136 213.373 558.659H213.532V560H214.827V548.364H213.487V552.659H213.373C213.077 552.205 212.555 551.159 210.85 551.159C208.646 551.159 207.123 552.909 207.123 555.659C207.123 558.432 208.646 560.182 210.827 560.182ZM211.009 558.977C209.327 558.977 208.464 557.5 208.464 555.636C208.464 553.795 209.305 552.364 211.009 552.364C212.646 552.364 213.509 553.682 213.509 555.636C213.509 557.614 212.623 558.977 211.009 558.977ZM221.015 560.182C223.379 560.182 224.969 558.386 224.969 555.682C224.969 552.955 223.379 551.159 221.015 551.159C218.651 551.159 217.06 552.955 217.06 555.682C217.06 558.386 218.651 560.182 221.015 560.182ZM221.015 558.977C219.219 558.977 218.401 557.432 218.401 555.682C218.401 553.932 219.219 552.364 221.015 552.364C222.81 552.364 223.629 553.932 223.629 555.682C223.629 557.432 222.81 558.977 221.015 558.977ZM228.357 548.364H227.016V560H228.357V548.364ZM234.359 560.182C236.722 560.182 238.313 558.386 238.313 555.682C238.313 552.955 236.722 551.159 234.359 551.159C231.995 551.159 230.404 552.955 230.404 555.682C230.404 558.386 231.995 560.182 234.359 560.182ZM234.359 558.977C232.563 558.977 231.745 557.432 231.745 555.682C231.745 553.932 232.563 552.364 234.359 552.364C236.154 552.364 236.972 553.932 236.972 555.682C236.972 557.432 236.154 558.977 234.359 558.977ZM240.36 560H241.701V554.477C241.701 553.295 242.633 552.432 243.906 552.432C244.263 552.432 244.633 552.5 244.724 552.523V551.159C244.57 551.148 244.218 551.136 244.019 551.136C242.974 551.136 242.065 551.727 241.746 552.591H241.656V551.273H240.36V560ZM249.707 560.182C251.479 560.182 252.775 559.295 253.184 557.977L251.888 557.614C251.548 558.523 250.758 558.977 249.707 558.977C248.133 558.977 247.048 557.96 246.985 556.091H253.32V555.523C253.32 552.273 251.388 551.159 249.57 551.159C247.207 551.159 245.638 553.023 245.638 555.705C245.638 558.386 247.184 560.182 249.707 560.182ZM246.985 554.932C247.076 553.574 248.036 552.364 249.57 552.364C251.025 552.364 251.957 553.455 251.957 554.932H246.985ZM259.86 560H261.201V554.545C261.201 553.267 262.133 552.364 263.178 552.364C264.195 552.364 264.906 553.028 264.906 554.023V560H266.269V554.318C266.269 553.193 266.974 552.364 268.201 552.364C269.156 552.364 269.974 552.869 269.974 554.159V560H271.315V554.159C271.315 552.108 270.212 551.159 268.656 551.159C267.406 551.159 266.491 551.733 266.042 552.636H265.951C265.519 551.705 264.758 551.159 263.61 551.159C262.474 551.159 261.633 551.705 261.269 552.636H261.156V551.273H259.86V560ZM276.335 560.205C277.857 560.205 278.653 559.386 278.925 558.818H278.994V560H280.335V554.25C280.335 551.477 278.221 551.159 277.107 551.159C275.789 551.159 274.289 551.614 273.607 553.205L274.88 553.659C275.175 553.023 275.874 552.341 277.153 552.341C278.386 552.341 278.994 552.994 278.994 554.114V554.159C278.994 554.807 278.335 554.75 276.744 554.955C275.124 555.165 273.357 555.523 273.357 557.523C273.357 559.227 274.675 560.205 276.335 560.205ZM276.539 559C275.471 559 274.698 558.523 274.698 557.591C274.698 556.568 275.63 556.25 276.675 556.114C277.244 556.045 278.766 555.886 278.994 555.614V556.841C278.994 557.932 278.13 559 276.539 559ZM286.305 563.455C288.396 563.455 290.077 562.5 290.077 560.25V551.273H288.782V552.659H288.646C288.35 552.205 287.805 551.159 286.1 551.159C283.896 551.159 282.373 552.909 282.373 555.591C282.373 558.318 283.964 559.864 286.077 559.864C287.782 559.864 288.327 558.864 288.623 558.386H288.737V560.159C288.737 561.614 287.714 562.273 286.305 562.273C284.719 562.273 284.163 561.438 283.805 560.955L282.737 561.705C283.282 562.619 284.356 563.455 286.305 563.455ZM286.259 558.659C284.577 558.659 283.714 557.386 283.714 555.568C283.714 553.795 284.555 552.364 286.259 552.364C287.896 552.364 288.759 553.682 288.759 555.568C288.759 557.5 287.873 558.659 286.259 558.659ZM293.873 554.75C293.873 553.227 294.816 552.364 296.1 552.364C297.344 552.364 298.1 553.176 298.1 554.545V560H299.441V554.455C299.441 552.227 298.254 551.159 296.487 551.159C295.168 551.159 294.35 551.75 293.941 552.636H293.827V551.273H292.532V560H293.873V554.75ZM304.46 560.205C305.982 560.205 306.778 559.386 307.05 558.818H307.119V560H308.46V554.25C308.46 551.477 306.346 551.159 305.232 551.159C303.914 551.159 302.414 551.614 301.732 553.205L303.005 553.659C303.3 553.023 303.999 552.341 305.278 552.341C306.511 552.341 307.119 552.994 307.119 554.114V554.159C307.119 554.807 306.46 554.75 304.869 554.955C303.249 555.165 301.482 555.523 301.482 557.523C301.482 559.227 302.8 560.205 304.46 560.205ZM304.664 559C303.596 559 302.823 558.523 302.823 557.591C302.823 556.568 303.755 556.25 304.8 556.114C305.369 556.045 306.891 555.886 307.119 555.614V556.841C307.119 557.932 306.255 559 304.664 559ZM317.975 560.205C319.498 560.205 320.293 559.386 320.566 558.818H320.634V560H321.975V554.25C321.975 551.477 319.862 551.159 318.748 551.159C317.43 551.159 315.93 551.614 315.248 553.205L316.521 553.659C316.816 553.023 317.515 552.341 318.793 552.341C320.026 552.341 320.634 552.994 320.634 554.114V554.159C320.634 554.807 319.975 554.75 318.384 554.955C316.765 555.165 314.998 555.523 314.998 557.523C314.998 559.227 316.316 560.205 317.975 560.205ZM318.18 559C317.112 559 316.339 558.523 316.339 557.591C316.339 556.568 317.271 556.25 318.316 556.114C318.884 556.045 320.407 555.886 320.634 555.614V556.841C320.634 557.932 319.771 559 318.18 559ZM325.763 548.364H324.423V560H325.763V548.364ZM328.219 560H329.56V551.273H328.219V560ZM328.901 549.818C329.424 549.818 329.856 549.409 329.856 548.909C329.856 548.409 329.424 548 328.901 548C328.379 548 327.947 548.409 327.947 548.909C327.947 549.409 328.379 549.818 328.901 549.818ZM339.312 563.273V551.273H338.016V552.659H337.857C337.562 552.205 337.039 551.159 335.335 551.159C333.13 551.159 331.607 552.909 331.607 555.659C331.607 558.432 333.13 560.182 335.312 560.182C336.994 560.182 337.562 559.136 337.857 558.659H337.971V563.273H339.312ZM337.994 555.636C337.994 557.614 337.107 558.977 335.494 558.977C333.812 558.977 332.948 557.5 332.948 555.636C332.948 553.795 333.789 552.364 335.494 552.364C337.13 552.364 337.994 553.682 337.994 555.636ZM347.266 556.432C347.266 558.068 346.016 558.818 345.016 558.818C343.903 558.818 343.107 558 343.107 556.727V551.273H341.766V556.818C341.766 559.045 342.948 560.114 344.585 560.114C345.903 560.114 346.766 559.409 347.175 558.523H347.266V560H348.607V551.273H347.266V556.432ZM353.631 560.205C355.154 560.205 355.95 559.386 356.222 558.818H356.29V560H357.631V554.25C357.631 551.477 355.518 551.159 354.404 551.159C353.086 551.159 351.586 551.614 350.904 553.205L352.177 553.659C352.472 553.023 353.171 552.341 354.45 552.341C355.683 552.341 356.29 552.994 356.29 554.114V554.159C356.29 554.807 355.631 554.75 354.04 554.955C352.421 555.165 350.654 555.523 350.654 557.523C350.654 559.227 351.972 560.205 353.631 560.205ZM353.836 559C352.768 559 351.995 558.523 351.995 557.591C351.995 556.568 352.927 556.25 353.972 556.114C354.54 556.045 356.063 555.886 356.29 555.614V556.841C356.29 557.932 355.427 559 353.836 559ZM361.056 560.091C361.619 560.091 362.079 559.631 362.079 559.068C362.079 558.506 361.619 558.045 361.056 558.045C360.494 558.045 360.033 558.506 360.033 559.068C360.033 559.631 360.494 560.091 361.056 560.091Z" fill="black" fill-opacity="0.6"/>
<path d="M48.0653 37.5455H44.9205V49.4432H44.767L36.5511 37.5455H33.7216V55H36.8835V43.1108H37.0284L45.2528 55H48.0653V37.5455ZM58.758 49.4943C58.758 51.4886 57.3347 52.4773 55.9711 52.4773C54.4882 52.4773 53.4995 51.429 53.4995 49.767V41.9091H50.4143V50.2443C50.4143 53.3892 52.2041 55.1705 54.7779 55.1705C56.7382 55.1705 58.1188 54.1392 58.7154 52.6733H58.8518V55H61.8433V41.9091H58.758V49.4943ZM70.5928 41.9091H68.0104V38.7727H64.9252V41.9091H63.0672V44.2955H64.9252V51.5739C64.9081 54.0369 66.6979 55.2472 69.0161 55.179C69.8939 55.1534 70.499 54.983 70.8314 54.8722L70.3115 52.4602C70.1411 52.5028 69.7916 52.5795 69.4081 52.5795C68.6326 52.5795 68.0104 52.3068 68.0104 51.0625V44.2955H70.5928V41.9091ZM72.213 55H75.2983V47.304C75.2983 45.642 76.5511 44.4659 78.2471 44.4659C78.767 44.4659 79.4147 44.5597 79.6789 44.6449V41.8068C79.3977 41.7557 78.9119 41.7216 78.571 41.7216C77.071 41.7216 75.8182 42.5739 75.3409 44.0909H75.2045V41.9091H72.213V55ZM80.7687 55H83.8539V41.9091H80.7687V55ZM82.3198 40.0511C83.2999 40.0511 84.1011 39.3011 84.1011 38.3807C84.1011 37.4517 83.2999 36.7017 82.3198 36.7017C81.3312 36.7017 80.53 37.4517 80.53 38.3807C80.53 39.3011 81.3312 40.0511 82.3198 40.0511ZM92.6034 41.9091H90.021V38.7727H86.9358V41.9091H85.0778V44.2955H86.9358V51.5739C86.9188 54.0369 88.7085 55.2472 91.0267 55.179C91.9045 55.1534 92.5097 54.983 92.842 54.8722L92.3222 52.4602C92.1517 52.5028 91.8023 52.5795 91.4188 52.5795C90.6432 52.5795 90.021 52.3068 90.021 51.0625V44.2955H92.6034V41.9091ZM94.2237 55H97.3089V41.9091H94.2237V55ZM95.7748 40.0511C96.7549 40.0511 97.5561 39.3011 97.5561 38.3807C97.5561 37.4517 96.7549 36.7017 95.7748 36.7017C94.7862 36.7017 93.985 37.4517 93.985 38.3807C93.985 39.3011 94.7862 40.0511 95.7748 40.0511ZM105.232 55.2557C109.067 55.2557 111.504 52.554 111.504 48.5057C111.504 44.4489 109.067 41.7386 105.232 41.7386C101.396 41.7386 98.959 44.4489 98.959 48.5057C98.959 52.554 101.396 55.2557 105.232 55.2557ZM105.249 52.7841C103.127 52.7841 102.087 50.892 102.087 48.4972C102.087 46.1023 103.127 44.1847 105.249 44.1847C107.337 44.1847 108.377 46.1023 108.377 48.4972C108.377 50.892 107.337 52.7841 105.249 52.7841ZM116.248 47.3295C116.248 45.4375 117.39 44.3466 119.018 44.3466C120.612 44.3466 121.566 45.3949 121.566 47.142V55H124.652V46.6648C124.66 43.5284 122.87 41.7386 120.169 41.7386C118.208 41.7386 116.862 42.6761 116.265 44.1335H116.112V41.9091H113.163V55H116.248V47.3295ZM135.119 37.5455H131.958V55H135.119V37.5455ZM140.532 47.3295C140.532 45.4375 141.674 44.3466 143.302 44.3466C144.896 44.3466 145.851 45.3949 145.851 47.142V55H148.936V46.6648C148.944 43.5284 147.154 41.7386 144.453 41.7386C142.493 41.7386 141.146 42.6761 140.549 44.1335H140.396V41.9091H137.447V55H140.532V47.3295ZM157.743 41.9091H155.024V40.8778C155.024 39.8551 155.45 39.2841 156.601 39.2841C157.087 39.2841 157.496 39.3949 157.751 39.4716L158.373 37.0852C157.973 36.9489 157.095 36.7273 156.03 36.7273C153.754 36.7273 151.939 38.0312 151.939 40.6733V41.9091H150.004V44.2955H151.939V55H155.024V44.2955H157.743V41.9091ZM164.417 55.2557C168.252 55.2557 170.69 52.554 170.69 48.5057C170.69 44.4489 168.252 41.7386 164.417 41.7386C160.582 41.7386 158.144 44.4489 158.144 48.5057C158.144 52.554 160.582 55.2557 164.417 55.2557ZM164.434 52.7841C162.312 52.7841 161.272 50.892 161.272 48.4972C161.272 46.1023 162.312 44.1847 164.434 44.1847C166.522 44.1847 167.562 46.1023 167.562 48.4972C167.562 50.892 166.522 52.7841 164.434 52.7841ZM172.348 55H175.434V47.304C175.434 45.642 176.686 44.4659 178.382 44.4659C178.902 44.4659 179.55 44.5597 179.814 44.6449V41.8068C179.533 41.7557 179.047 41.7216 178.706 41.7216C177.206 41.7216 175.953 42.5739 175.476 44.0909H175.34V41.9091H172.348V55ZM180.904 55H183.989V47.0398C183.989 45.429 185.063 44.3381 186.393 44.3381C187.697 44.3381 188.591 45.2159 188.591 46.5625V55H191.617V46.8352C191.617 45.3608 192.495 44.3381 193.986 44.3381C195.231 44.3381 196.219 45.071 196.219 46.6903V55H199.313V46.2131C199.313 43.2898 197.626 41.7386 195.222 41.7386C193.322 41.7386 191.873 42.6761 191.293 44.1335H191.157C190.654 42.6506 189.384 41.7386 187.62 41.7386C185.864 41.7386 184.552 42.642 184.006 44.1335H183.853V41.9091H180.904V55ZM205.25 55.2642C207.304 55.2642 208.531 54.3011 209.094 53.2017H209.196V55H212.162V46.2386C212.162 42.7784 209.341 41.7386 206.844 41.7386C204.091 41.7386 201.977 42.9659 201.296 45.3523L204.176 45.7614C204.483 44.8665 205.352 44.0994 206.861 44.0994C208.293 44.0994 209.077 44.8324 209.077 46.1193V46.1705C209.077 47.0568 208.148 47.0994 205.838 47.3466C203.298 47.6193 200.869 48.3778 200.869 51.3267C200.869 53.9006 202.753 55.2642 205.25 55.2642ZM206.051 52.9972C204.764 52.9972 203.844 52.4091 203.844 51.2756C203.844 50.0909 204.875 49.5966 206.256 49.4006C207.065 49.2898 208.685 49.0852 209.085 48.7614V50.304C209.085 51.7614 207.909 52.9972 206.051 52.9972ZM220.841 41.9091H218.259V38.7727H215.174V41.9091H213.316V44.2955H215.174V51.5739C215.157 54.0369 216.946 55.2472 219.265 55.179C220.142 55.1534 220.747 54.983 221.08 54.8722L220.56 52.4602C220.39 52.5028 220.04 52.5795 219.657 52.5795C218.881 52.5795 218.259 52.3068 218.259 51.0625V44.2955H220.841V41.9091ZM222.461 55H225.547V41.9091H222.461V55ZM224.013 40.0511C224.993 40.0511 225.794 39.3011 225.794 38.3807C225.794 37.4517 224.993 36.7017 224.013 36.7017C223.024 36.7017 222.223 37.4517 222.223 38.3807C222.223 39.3011 223.024 40.0511 224.013 40.0511ZM233.47 55.2557C237.305 55.2557 239.742 52.554 239.742 48.5057C239.742 44.4489 237.305 41.7386 233.47 41.7386C229.634 41.7386 227.197 44.4489 227.197 48.5057C227.197 52.554 229.634 55.2557 233.47 55.2557ZM233.487 52.7841C231.364 52.7841 230.325 50.892 230.325 48.4972C230.325 46.1023 231.364 44.1847 233.487 44.1847C235.575 44.1847 236.614 46.1023 236.614 48.4972C236.614 50.892 235.575 52.7841 233.487 52.7841ZM244.486 47.3295C244.486 45.4375 245.628 44.3466 247.256 44.3466C248.85 44.3466 249.804 45.3949 249.804 47.142V55H252.889V46.6648C252.898 43.5284 251.108 41.7386 248.407 41.7386C246.446 41.7386 245.1 42.6761 244.503 44.1335H244.35V41.9091H241.401V55H244.486V47.3295Z" fill="black"/>
<path d="M32 123H368" stroke="black" stroke-opacity="0.1"/>
<path d="M44.3111 94.1662C43.8636 91.3665 41.6712 89.7301 38.9034 89.7301C35.5156 89.7301 33.0163 92.2678 33.0163 96.4545C33.0163 100.641 35.5028 103.179 38.9034 103.179C41.7798 103.179 43.8828 101.376 44.3111 98.7876L42.3168 98.7812C41.978 100.456 40.5717 101.376 38.9162 101.376C36.6726 101.376 34.9787 99.657 34.9787 96.4545C34.9787 93.2777 36.6662 91.5327 38.9226 91.5327C40.5909 91.5327 41.9908 92.4723 42.3168 94.1662H44.3111ZM48.6584 103.217C50.282 103.217 51.196 102.393 51.5604 101.658H51.6371V103H53.5035V96.4801C53.5035 93.6229 51.2535 93.054 49.6939 93.054C47.9169 93.054 46.2805 93.7699 45.6413 95.5597L47.4375 95.9688C47.7187 95.272 48.4347 94.6009 49.7195 94.6009C50.9531 94.6009 51.5859 95.2464 51.5859 96.3587V96.4034C51.5859 97.1001 50.87 97.0874 49.1058 97.2919C47.2457 97.5092 45.3409 97.995 45.3409 100.226C45.3409 102.156 46.7919 103.217 48.6584 103.217ZM49.0739 101.683C47.9936 101.683 47.2138 101.197 47.2138 100.251C47.2138 99.2287 48.1214 98.8643 49.2273 98.7173C49.8473 98.6342 51.3175 98.468 51.5923 98.1932V99.4588C51.5923 100.622 50.6655 101.683 49.0739 101.683ZM57.2404 89.9091H55.3292V103H57.2404V89.9091ZM63.2273 103.198C65.995 103.198 67.804 101.172 67.804 98.1357C67.804 95.0803 65.995 93.054 63.2273 93.054C60.4595 93.054 58.6505 95.0803 58.6505 98.1357C58.6505 101.172 60.4595 103.198 63.2273 103.198ZM63.2336 101.594C61.4247 101.594 60.5809 100.015 60.5809 98.1293C60.5809 96.25 61.4247 94.652 63.2336 94.652C65.0298 94.652 65.8736 96.25 65.8736 98.1293C65.8736 100.015 65.0298 101.594 63.2336 101.594ZM69.2173 103H71.1285V97.0043C71.1285 95.7195 72.1193 94.7926 73.4744 94.7926C73.8707 94.7926 74.3182 94.8629 74.4716 94.9077V93.0795C74.2798 93.054 73.9027 93.0348 73.6598 93.0348C72.5092 93.0348 71.5248 93.6868 71.1669 94.7415H71.0646V93.1818H69.2173V103ZM75.4055 103H77.3167V93.1818H75.4055V103ZM76.3707 91.6669C77.0291 91.6669 77.5788 91.1555 77.5788 90.5291C77.5788 89.9027 77.0291 89.3849 76.3707 89.3849C75.7059 89.3849 75.1626 89.9027 75.1626 90.5291C75.1626 91.1555 75.7059 91.6669 76.3707 91.6669ZM83.3995 103.198C85.5408 103.198 87.0557 102.143 87.4904 100.545L85.6814 100.219C85.3363 101.146 84.5053 101.619 83.4186 101.619C81.7823 101.619 80.6828 100.558 80.6317 98.6662H87.6118V97.9886C87.6118 94.4411 85.4897 93.054 83.2652 93.054C80.5294 93.054 78.7269 95.1378 78.7269 98.1548C78.7269 101.204 80.5039 103.198 83.3995 103.198ZM80.6381 97.2344C80.7148 95.8409 81.7247 94.6328 83.278 94.6328C84.761 94.6328 85.7326 95.7322 85.7389 97.2344H80.6381ZM96.3696 95.5788C95.9733 94.0511 94.778 93.054 92.6558 93.054C90.4378 93.054 88.8654 94.2237 88.8654 95.9624C88.8654 97.3558 89.7091 98.2827 91.55 98.6918L93.212 99.0561C94.158 99.267 94.599 99.6889 94.599 100.303C94.599 101.063 93.7872 101.658 92.5344 101.658C91.3902 101.658 90.6551 101.165 90.425 100.2L88.5777 100.482C88.8973 102.22 90.3419 103.198 92.5472 103.198C94.9186 103.198 96.5614 101.939 96.5614 100.162C96.5614 98.7749 95.6793 97.9183 93.8767 97.5028L92.3171 97.1449C91.2368 96.8892 90.7702 96.5249 90.7766 95.8601C90.7702 95.1058 91.5884 94.5689 92.675 94.5689C93.8639 94.5689 94.4137 95.2273 94.6374 95.8857L96.3696 95.5788Z" fill="black" fill-opacity="0.6"/>
<path d="M289.536 103H298.153V101.306H292.259V101.21L294.861 98.4872C297.258 96.0646 297.942 94.9077 297.942 93.4439C297.942 91.3409 296.229 89.7301 293.761 89.7301C291.313 89.7301 289.523 91.3153 289.523 93.706H291.409C291.403 92.2997 292.31 91.3793 293.723 91.3793C295.052 91.3793 296.062 92.1974 296.062 93.5014C296.062 94.6584 295.372 95.4893 293.966 96.9787L289.536 101.568V103ZM304.822 89.9091H302.898L299.631 92.044V93.9361L302.764 91.8906H302.84V103H304.822V89.9091ZM311.996 89.7301C309.247 89.7045 307.451 91.6797 307.451 94.1598C307.458 96.6591 309.267 98.4616 311.536 98.4616C312.923 98.4616 314.112 97.7841 314.783 96.6847H314.885C314.879 99.6953 313.747 101.453 311.83 101.453C310.577 101.453 309.772 100.686 309.516 99.5675H307.566C307.854 101.683 309.49 103.179 311.83 103.179C314.872 103.179 316.777 100.565 316.777 95.9815C316.771 91.2003 314.329 89.7493 311.996 89.7301ZM312.002 91.392C313.517 91.392 314.636 92.6768 314.636 94.1151C314.642 95.5724 313.46 96.8509 311.964 96.8509C310.462 96.8509 309.375 95.6491 309.369 94.1342C309.369 92.6129 310.5 91.392 312.002 91.392ZM319.159 103.121C319.856 103.121 320.437 102.553 320.437 101.843C320.437 101.146 319.856 100.571 319.159 100.571C318.456 100.571 317.881 101.146 317.881 101.843C317.881 102.553 318.456 103.121 319.159 103.121ZM326.447 89.7301C323.698 89.7045 321.902 91.6797 321.902 94.1598C321.908 96.6591 323.717 98.4616 325.986 98.4616C327.373 98.4616 328.562 97.7841 329.234 96.6847H329.336C329.329 99.6953 328.198 101.453 326.28 101.453C325.028 101.453 324.222 100.686 323.966 99.5675H322.017C322.305 101.683 323.941 103.179 326.28 103.179C329.323 103.179 331.228 100.565 331.228 95.9815C331.221 91.2003 328.78 89.7493 326.447 89.7301ZM326.453 91.392C327.968 91.392 329.087 92.6768 329.087 94.1151C329.093 95.5724 327.91 96.8509 326.415 96.8509C324.913 96.8509 323.826 95.6491 323.819 94.1342C323.819 92.6129 324.951 91.392 326.453 91.392ZM336.886 103H338.797V99.5163L339.75 98.5639L343.086 103H345.432L341.188 97.3942L345.164 93.1818H342.876L338.964 97.3366H338.797V89.9091H336.886V103ZM349.917 103.198C352.237 103.198 353.74 101.805 353.95 99.8935H352.09C351.847 100.955 351.023 101.581 349.93 101.581C348.313 101.581 347.271 100.232 347.271 98.0909C347.271 95.9879 348.332 94.6648 349.93 94.6648C351.144 94.6648 351.886 95.4318 352.09 96.3523H353.95C353.746 94.3707 352.129 93.054 349.898 93.054C347.13 93.054 345.34 95.1378 345.34 98.1357C345.34 101.095 347.066 103.198 349.917 103.198ZM358.132 103.217C359.755 103.217 360.669 102.393 361.034 101.658H361.11V103H362.977V96.4801C362.977 93.6229 360.727 93.054 359.167 93.054C357.39 93.054 355.754 93.7699 355.115 95.5597L356.911 95.9688C357.192 95.272 357.908 94.6009 359.193 94.6009C360.426 94.6009 361.059 95.2464 361.059 96.3587V96.4034C361.059 97.1001 360.343 97.0874 358.579 97.2919C356.719 97.5092 354.814 97.995 354.814 100.226C354.814 102.156 356.265 103.217 358.132 103.217ZM358.547 101.683C357.467 101.683 356.687 101.197 356.687 100.251C356.687 99.2287 357.595 98.8643 358.7 98.7173C359.32 98.6342 360.791 98.468 361.066 98.1932V99.4588C361.066 100.622 360.139 101.683 358.547 101.683ZM366.714 89.9091H364.802V103H366.714V89.9091Z" fill="black"/>
<path d="M32 177H368" stroke="black" stroke-opacity="0.1"/>
<path d="M32.7926 145.609H36.8707V157H38.8395V145.609H42.924V143.909H32.7926V145.609ZM47.0012 157.198C49.769 157.198 51.5779 155.172 51.5779 152.136C51.5779 149.08 49.769 147.054 47.0012 147.054C44.2335 147.054 42.4245 149.08 42.4245 152.136C42.4245 155.172 44.2335 157.198 47.0012 157.198ZM47.0076 155.594C45.1987 155.594 44.3549 154.015 44.3549 152.129C44.3549 150.25 45.1987 148.652 47.0076 148.652C48.8038 148.652 49.6475 150.25 49.6475 152.129C49.6475 154.015 48.8038 155.594 47.0076 155.594ZM57.5744 147.182H55.5609V144.83H53.6497V147.182H52.2115V148.716H53.6497V154.513C53.6433 156.297 55.0048 157.16 56.5133 157.128C57.1205 157.121 57.5296 157.006 57.7534 156.923L57.4082 155.344C57.2803 155.37 57.0438 155.428 56.737 155.428C56.117 155.428 55.5609 155.223 55.5609 154.117V148.716H57.5744V147.182ZM61.8258 157.217C63.4494 157.217 64.3634 156.393 64.7278 155.658H64.8045V157H66.671V150.48C66.671 147.623 64.421 147.054 62.8613 147.054C61.0843 147.054 59.448 147.77 58.8088 149.56L60.6049 149.969C60.8862 149.272 61.6021 148.601 62.8869 148.601C64.1205 148.601 64.7534 149.246 64.7534 150.359V150.403C64.7534 151.1 64.0374 151.087 62.2732 151.292C60.4132 151.509 58.5083 151.995 58.5083 154.226C58.5083 156.156 59.9593 157.217 61.8258 157.217ZM62.2413 155.683C61.161 155.683 60.3812 155.197 60.3812 154.251C60.3812 153.229 61.2889 152.864 62.3947 152.717C63.0147 152.634 64.4849 152.468 64.7597 152.193V153.459C64.7597 154.622 63.8329 155.683 62.2413 155.683ZM70.4078 143.909H68.4966V157H70.4078V143.909ZM76.4561 157H78.4312V151.292H83.9923V149.598H78.4312V145.609H84.574V143.909H76.4561V157ZM88.9517 157.217C90.5752 157.217 91.4893 156.393 91.8536 155.658H91.9303V157H93.7968V150.48C93.7968 147.623 91.5468 147.054 89.9872 147.054C88.2102 147.054 86.5738 147.77 85.9346 149.56L87.7308 149.969C88.012 149.272 88.7279 148.601 90.0127 148.601C91.2464 148.601 91.8792 149.246 91.8792 150.359V150.403C91.8792 151.1 91.1633 151.087 89.3991 151.292C87.539 151.509 85.6342 151.995 85.6342 154.226C85.6342 156.156 87.0852 157.217 88.9517 157.217ZM89.3671 155.683C88.2869 155.683 87.5071 155.197 87.5071 154.251C87.5071 153.229 88.4147 152.864 89.5205 152.717C90.1406 152.634 91.6107 152.468 91.8856 152.193V153.459C91.8856 154.622 90.9588 155.683 89.3671 155.683ZM100.206 147.182H98.1921V144.83H96.2808V147.182H94.8426V148.716H96.2808V154.513C96.2744 156.297 97.6359 157.16 99.1445 157.128C99.7517 157.121 100.161 157.006 100.385 156.923L100.039 155.344C99.9115 155.37 99.675 155.428 99.3682 155.428C98.7482 155.428 98.1921 155.223 98.1921 154.117V148.716H100.206V147.182Z" fill="black" fill-opacity="0.6"/>
<path d="M327.131 143.909H325.207L321.94 146.044V147.936L325.072 145.891H325.149V157H327.131V143.909ZM334.509 157.217C337.533 157.217 339.303 154.75 339.303 150.461C339.303 146.204 337.507 143.73 334.509 143.73C331.505 143.73 329.715 146.197 329.709 150.461C329.709 154.744 331.479 157.211 334.509 157.217ZM334.509 155.511C332.739 155.511 331.671 153.734 331.671 150.461C331.678 147.201 332.745 145.405 334.509 145.405C336.267 145.405 337.341 147.201 337.341 150.461C337.341 153.734 336.273 155.511 334.509 155.511ZM341.643 157.121C342.34 157.121 342.922 156.553 342.922 155.843C342.922 155.146 342.34 154.571 341.643 154.571C340.94 154.571 340.365 155.146 340.365 155.843C340.365 156.553 340.94 157.121 341.643 157.121ZM344.843 157H346.908L352.603 145.661V143.909H343.949V145.603H350.558V145.699L344.843 157ZM362.292 160.886C364.791 160.886 366.722 159.742 366.722 157.217V147.182H364.849V148.773H364.708C364.369 148.166 363.692 147.054 361.864 147.054C359.492 147.054 357.747 148.927 357.747 152.053C357.747 155.185 359.531 156.853 361.851 156.853C363.653 156.853 364.35 155.837 364.695 155.21H364.817V157.141C364.817 158.681 363.762 159.346 362.311 159.346C360.719 159.346 360.099 158.547 359.761 157.984L358.118 158.662C358.636 159.864 359.946 160.886 362.292 160.886ZM362.273 155.268C360.566 155.268 359.678 153.957 359.678 152.027C359.678 150.141 360.547 148.678 362.273 148.678C363.941 148.678 364.836 150.039 364.836 152.027C364.836 154.053 363.922 155.268 362.273 155.268Z" fill="black"/>
<path d="M32 231H368" stroke="black" stroke-opacity="0.1"/>
<path d="M33.4382 211H35.4134V206.398H38.098C41.1342 206.398 42.6364 204.563 42.6364 202.147C42.6364 199.737 41.147 197.909 38.1044 197.909H33.4382V211ZM35.4134 204.723V199.603H37.8935C39.8494 199.603 40.6484 200.664 40.6484 202.147C40.6484 203.63 39.8494 204.723 37.919 204.723H35.4134ZM44.0785 211H45.9897V205.004C45.9897 203.719 46.9805 202.793 48.3356 202.793C48.7319 202.793 49.1793 202.863 49.3327 202.908V201.08C49.141 201.054 48.7638 201.035 48.5209 201.035C47.3704 201.035 46.386 201.687 46.028 202.741H45.9258V201.182H44.0785V211ZM54.0508 211.198C56.8185 211.198 58.6275 209.172 58.6275 206.136C58.6275 203.08 56.8185 201.054 54.0508 201.054C51.283 201.054 49.4741 203.08 49.4741 206.136C49.4741 209.172 51.283 211.198 54.0508 211.198ZM54.0572 209.594C52.2482 209.594 51.4045 208.015 51.4045 206.129C51.4045 204.25 52.2482 202.652 54.0572 202.652C55.8533 202.652 56.6971 204.25 56.6971 206.129C56.6971 208.015 55.8533 209.594 54.0572 209.594ZM64.6239 201.182H62.6104V198.83H60.6992V201.182H59.261V202.716H60.6992V208.513C60.6928 210.297 62.0543 211.16 63.5628 211.128C64.1701 211.121 64.5792 211.006 64.8029 210.923L64.4577 209.344C64.3299 209.37 64.0934 209.428 63.7866 209.428C63.1665 209.428 62.6104 209.223 62.6104 208.117V202.716H64.6239V201.182ZM70.1441 211.198C72.2855 211.198 73.8004 210.143 74.2351 208.545L72.4261 208.219C72.0809 209.146 71.25 209.619 70.1633 209.619C68.527 209.619 67.4275 208.558 67.3764 206.666H74.3565V205.989C74.3565 202.441 72.2343 201.054 70.0099 201.054C67.2741 201.054 65.4716 203.138 65.4716 206.155C65.4716 209.204 67.2486 211.198 70.1441 211.198ZM67.3828 205.234C67.4595 203.841 68.4694 202.633 70.0227 202.633C71.5057 202.633 72.4772 203.732 72.4836 205.234H67.3828ZM75.7571 211H77.6683V201.182H75.7571V211ZM76.7223 199.667C77.3806 199.667 77.9304 199.156 77.9304 198.529C77.9304 197.903 77.3806 197.385 76.7223 197.385C76.0575 197.385 75.5142 197.903 75.5142 198.529C75.5142 199.156 76.0575 199.667 76.7223 199.667ZM81.4307 205.17C81.4307 203.604 82.3895 202.71 83.7191 202.71C85.0166 202.71 85.8029 203.56 85.8029 204.985V211H87.7141V204.755C87.7141 202.326 86.3782 201.054 84.3711 201.054C82.8945 201.054 81.9293 201.738 81.4755 202.78H81.354V201.182H79.5195V211H81.4307V205.17Z" fill="black" fill-opacity="0.6"/>
<path d="M332.151 211H334.215L339.911 199.661V197.909H331.256V199.603H337.865V199.699L332.151 211ZM340.448 211.121C341.145 211.121 341.727 210.553 341.727 209.843C341.727 209.146 341.145 208.571 340.448 208.571C339.745 208.571 339.17 209.146 339.17 209.843C339.17 210.553 339.745 211.121 340.448 211.121ZM347.736 197.73C344.987 197.705 343.191 199.68 343.191 202.16C343.197 204.659 345.006 206.462 347.276 206.462C348.663 206.462 349.852 205.784 350.523 204.685H350.625C350.619 207.695 349.487 209.453 347.57 209.453C346.317 209.453 345.511 208.686 345.256 207.567H343.306C343.594 209.683 345.23 211.179 347.57 211.179C350.612 211.179 352.517 208.565 352.517 203.982C352.511 199.2 350.069 197.749 347.736 197.73ZM347.742 199.392C349.257 199.392 350.376 200.677 350.376 202.115C350.382 203.572 349.2 204.851 347.704 204.851C346.202 204.851 345.115 203.649 345.109 202.134C345.109 200.613 346.24 199.392 347.742 199.392ZM362.292 214.886C364.791 214.886 366.722 213.742 366.722 211.217V201.182H364.849V202.773H364.708C364.369 202.166 363.692 201.054 361.864 201.054C359.492 201.054 357.747 202.927 357.747 206.053C357.747 209.185 359.531 210.853 361.851 210.853C363.653 210.853 364.35 209.837 364.695 209.21H364.817V211.141C364.817 212.681 363.762 213.346 362.311 213.346C360.719 213.346 360.099 212.547 359.761 211.984L358.118 212.662C358.636 213.864 359.946 214.886 362.292 214.886ZM362.273 209.268C360.566 209.268 359.678 207.957 359.678 206.027C359.678 204.141 360.547 202.678 362.273 202.678C363.941 202.678 364.836 204.039 364.836 206.027C364.836 208.053 363.922 209.268 362.273 209.268Z" fill="black"/>
<path d="M32 285H368" stroke="black" stroke-opacity="0.1"/>
<path d="M44.3111 256.166C43.8636 253.366 41.6712 251.73 38.9034 251.73C35.5156 251.73 33.0163 254.268 33.0163 258.455C33.0163 262.641 35.5028 265.179 38.9034 265.179C41.7798 265.179 43.8828 263.376 44.3111 260.788L42.3168 260.781C41.978 262.456 40.5717 263.376 38.9162 263.376C36.6726 263.376 34.9787 261.657 34.9787 258.455C34.9787 255.278 36.6662 253.533 38.9226 253.533C40.5909 253.533 41.9908 254.472 42.3168 256.166H44.3111ZM48.6584 265.217C50.282 265.217 51.196 264.393 51.5604 263.658H51.6371V265H53.5035V258.48C53.5035 255.623 51.2535 255.054 49.6939 255.054C47.9169 255.054 46.2805 255.77 45.6413 257.56L47.4375 257.969C47.7187 257.272 48.4347 256.601 49.7195 256.601C50.9531 256.601 51.5859 257.246 51.5859 258.359V258.403C51.5859 259.1 50.87 259.087 49.1058 259.292C47.2457 259.509 45.3409 259.995 45.3409 262.226C45.3409 264.156 46.7919 265.217 48.6584 265.217ZM49.0739 263.683C47.9936 263.683 47.2138 263.197 47.2138 262.251C47.2138 261.229 48.1214 260.864 49.2273 260.717C49.8473 260.634 51.3175 260.468 51.5923 260.193V261.459C51.5923 262.622 50.6655 263.683 49.0739 263.683ZM55.3292 265H57.2404V259.004C57.2404 257.719 58.2312 256.793 59.5863 256.793C59.9826 256.793 60.43 256.863 60.5834 256.908V255.08C60.3917 255.054 60.0145 255.035 59.7716 255.035C58.6211 255.035 57.6367 255.687 57.2787 256.741H57.1765V255.182H55.3292V265ZM61.6708 265H63.5373V263.472H63.6971C64.0422 264.099 64.7454 265.192 66.5351 265.192C68.913 265.192 70.6388 263.287 70.6388 260.11C70.6388 256.927 68.8874 255.054 66.516 255.054C64.6942 255.054 64.0358 256.166 63.6971 256.773H63.582V251.909H61.6708V265ZM63.5437 260.091C63.5437 258.039 64.4385 256.678 66.1069 256.678C67.8391 256.678 68.7084 258.141 68.7084 260.091C68.7084 262.06 67.8135 263.562 66.1069 263.562C64.4641 263.562 63.5437 262.156 63.5437 260.091ZM76.2006 265.198C78.9684 265.198 80.7773 263.172 80.7773 260.136C80.7773 257.08 78.9684 255.054 76.2006 255.054C73.4329 255.054 71.6239 257.08 71.6239 260.136C71.6239 263.172 73.4329 265.198 76.2006 265.198ZM76.207 263.594C74.3981 263.594 73.5543 262.015 73.5543 260.129C73.5543 258.25 74.3981 256.652 76.207 256.652C78.0032 256.652 78.8469 258.25 78.8469 260.129C78.8469 262.015 78.0032 263.594 76.207 263.594ZM84.1019 259.17C84.1019 257.604 85.0927 256.71 86.4542 256.71C87.7709 256.71 88.5571 257.547 88.5571 258.985V265H90.4684V258.755C90.4684 256.307 89.126 255.054 87.1061 255.054C85.5784 255.054 84.658 255.719 84.1978 256.78H84.0763V251.909H82.1907V265H84.1019V259.17ZM93.1553 268.682C94.7342 268.682 95.7313 267.857 96.3002 266.31L100.359 255.201L98.2945 255.182L95.808 262.801H95.7057L93.2192 255.182H91.1738L94.7661 265.128L94.5296 265.78C94.0438 267.084 93.3599 267.192 92.3116 266.905L91.8513 268.471C92.0815 268.573 92.58 268.682 93.1553 268.682ZM104.764 265.192C106.554 265.192 107.257 264.099 107.602 263.472H107.762V265H109.628V251.909H107.717V256.773H107.602C107.257 256.166 106.605 255.054 104.777 255.054C102.405 255.054 100.66 256.927 100.66 260.11C100.66 263.287 102.38 265.192 104.764 265.192ZM105.186 263.562C103.479 263.562 102.591 262.06 102.591 260.091C102.591 258.141 103.46 256.678 105.186 256.678C106.854 256.678 107.749 258.039 107.749 260.091C107.749 262.156 106.835 263.562 105.186 263.562ZM111.636 265H113.547V259.004C113.547 257.719 114.538 256.793 115.893 256.793C116.29 256.793 116.737 256.863 116.89 256.908V255.08C116.699 255.054 116.321 255.035 116.079 255.035C114.928 255.035 113.944 255.687 113.586 256.741H113.483V255.182H111.636V265ZM120.594 265.217C122.217 265.217 123.131 264.393 123.496 263.658H123.572V265H125.439V258.48C125.439 255.623 123.189 255.054 121.629 255.054C119.852 255.054 118.216 255.77 117.577 257.56L119.373 257.969C119.654 257.272 120.37 256.601 121.655 256.601C122.888 256.601 123.521 257.246 123.521 258.359V258.403C123.521 259.1 122.805 259.087 121.041 259.292C119.181 259.509 117.276 259.995 117.276 262.226C117.276 264.156 118.727 265.217 120.594 265.217ZM121.009 263.683C119.929 263.683 119.149 263.197 119.149 262.251C119.149 261.229 120.057 260.864 121.163 260.717C121.783 260.634 123.253 260.468 123.528 260.193V261.459C123.528 262.622 122.601 263.683 121.009 263.683ZM131.848 255.182H129.834V252.83H127.923V255.182H126.485V256.716H127.923V262.513C127.916 264.297 129.278 265.16 130.787 265.128C131.394 265.121 131.803 265.006 132.027 264.923L131.681 263.344C131.554 263.37 131.317 263.428 131.01 263.428C130.39 263.428 129.834 263.223 129.834 262.117V256.716H131.848V255.182ZM137.368 265.198C139.509 265.198 141.024 264.143 141.459 262.545L139.65 262.219C139.305 263.146 138.474 263.619 137.387 263.619C135.751 263.619 134.651 262.558 134.6 260.666H141.58V259.989C141.58 256.441 139.458 255.054 137.234 255.054C134.498 255.054 132.695 257.138 132.695 260.155C132.695 263.204 134.472 265.198 137.368 265.198ZM134.606 259.234C134.683 257.841 135.693 256.633 137.246 256.633C138.729 256.633 139.701 257.732 139.707 259.234H134.606Z" fill="black" fill-opacity="0.6"/>
<path d="M318.666 265H327.282V263.306H321.389V263.21L323.99 260.487C326.387 258.065 327.071 256.908 327.071 255.444C327.071 253.341 325.358 251.73 322.891 251.73C320.443 251.73 318.653 253.315 318.653 255.706H320.539C320.532 254.3 321.44 253.379 322.853 253.379C324.182 253.379 325.192 254.197 325.192 255.501C325.192 256.658 324.502 257.489 323.096 258.979L318.666 263.568V265ZM328.985 265H337.601V263.306H331.708V263.21L334.31 260.487C336.707 258.065 337.39 256.908 337.39 255.444C337.39 253.341 335.677 251.73 333.21 251.73C330.762 251.73 328.972 253.315 328.972 255.706H330.858C330.851 254.3 331.759 253.379 333.172 253.379C334.501 253.379 335.511 254.197 335.511 255.501C335.511 256.658 334.821 257.489 333.415 258.979L328.985 263.568V265ZM340.589 265.121C341.286 265.121 341.867 264.553 341.867 263.843C341.867 263.146 341.286 262.571 340.589 262.571C339.886 262.571 339.31 263.146 339.31 263.843C339.31 264.553 339.886 265.121 340.589 265.121ZM347.782 265.179C350.454 265.179 352.416 263.581 352.41 261.408C352.416 259.752 351.413 258.563 349.674 258.295V258.192C351.042 257.841 351.931 256.767 351.924 255.297C351.931 253.373 350.352 251.73 347.833 251.73C345.43 251.73 343.499 253.181 343.436 255.31H345.347C345.392 254.108 346.523 253.379 347.808 253.379C349.144 253.379 350.019 254.191 350.013 255.399C350.019 256.665 349.003 257.496 347.552 257.496H346.446V259.107H347.552C349.367 259.107 350.416 260.027 350.416 261.344C350.416 262.616 349.31 263.479 347.769 263.479C346.35 263.479 345.245 262.75 345.168 261.587H343.161C343.244 263.722 345.136 265.179 347.782 265.179ZM362.292 268.886C364.791 268.886 366.722 267.742 366.722 265.217V255.182H364.849V256.773H364.708C364.369 256.166 363.692 255.054 361.864 255.054C359.492 255.054 357.747 256.927 357.747 260.053C357.747 263.185 359.531 264.853 361.851 264.853C363.653 264.853 364.35 263.837 364.695 263.21H364.817V265.141C364.817 266.681 363.762 267.346 362.311 267.346C360.719 267.346 360.099 266.547 359.761 265.984L358.118 266.662C358.636 267.864 359.946 268.886 362.292 268.886ZM362.273 263.268C360.566 263.268 359.678 261.957 359.678 260.027C359.678 258.141 360.547 256.678 362.273 256.678C363.941 256.678 364.836 258.039 364.836 260.027C364.836 262.053 363.922 263.268 362.273 263.268Z" fill="black"/>
<path d="M32 345H368" stroke="black" stroke-opacity="0.1"/>
<path d="M44.3111 316.166C43.8636 313.366 41.6712 311.73 38.9034 311.73C35.5156 311.73 33.0163 314.268 33.0163 318.455C33.0163 322.641 35.5028 325.179 38.9034 325.179C41.7798 325.179 43.8828 323.376 44.3111 320.788L42.3168 320.781C41.978 322.456 40.5717 323.376 38.9162 323.376C36.6726 323.376 34.9787 321.657 34.9787 318.455C34.9787 315.278 36.6662 313.533 38.9226 313.533C40.5909 313.533 41.9908 314.472 42.3168 316.166H44.3111ZM47.7124 319.17C47.7124 317.604 48.7031 316.71 50.0646 316.71C51.3814 316.71 52.1676 317.547 52.1676 318.985V325H54.0788V318.755C54.0788 316.307 52.7365 315.054 50.7166 315.054C49.1889 315.054 48.2685 315.719 47.8082 316.78H47.6868V311.909H45.8011V325H47.7124V319.17ZM60.0449 325.198C62.8127 325.198 64.6216 323.172 64.6216 320.136C64.6216 317.08 62.8127 315.054 60.0449 315.054C57.2772 315.054 55.4682 317.08 55.4682 320.136C55.4682 323.172 57.2772 325.198 60.0449 325.198ZM60.0513 323.594C58.2424 323.594 57.3986 322.015 57.3986 320.129C57.3986 318.25 58.2424 316.652 60.0513 316.652C61.8475 316.652 62.6912 318.25 62.6912 320.129C62.6912 322.015 61.8475 323.594 60.0513 323.594ZM67.9462 311.909H66.035V325H67.9462V311.909ZM74.0289 325.198C76.1702 325.198 77.6852 324.143 78.1198 322.545L76.3109 322.219C75.9657 323.146 75.1347 323.619 74.0481 323.619C72.4117 323.619 71.3123 322.558 71.2612 320.666H78.2413V319.989C78.2413 316.441 76.1191 315.054 73.8947 315.054C71.1589 315.054 69.3563 317.138 69.3563 320.155C69.3563 323.204 71.1333 325.198 74.0289 325.198ZM71.2675 319.234C71.3443 317.841 72.3542 316.633 73.9075 316.633C75.3904 316.633 76.362 317.732 76.3684 319.234H71.2675ZM86.9991 317.579C86.6028 316.051 85.4075 315.054 83.2853 315.054C81.0673 315.054 79.4948 316.224 79.4948 317.962C79.4948 319.356 80.3386 320.283 82.1795 320.692L83.8414 321.056C84.7874 321.267 85.2285 321.689 85.2285 322.303C85.2285 323.063 84.4167 323.658 83.1639 323.658C82.0197 323.658 81.2846 323.165 81.0545 322.2L79.2072 322.482C79.5268 324.22 80.9714 325.198 83.1766 325.198C85.5481 325.198 87.1908 323.939 87.1908 322.162C87.1908 320.775 86.3087 319.918 84.5062 319.503L82.9465 319.145C81.8663 318.889 81.3996 318.525 81.406 317.86C81.3996 317.106 82.2178 316.569 83.3045 316.569C84.4934 316.569 85.0431 317.227 85.2668 317.886L86.9991 317.579ZM93.1553 315.182H91.1418V312.83H89.2306V315.182H87.7924V316.716H89.2306V322.513C89.2242 324.297 90.5857 325.16 92.0942 325.128C92.7015 325.121 93.1106 325.006 93.3343 324.923L92.9891 323.344C92.8613 323.37 92.6248 323.428 92.318 323.428C91.6979 323.428 91.1418 323.223 91.1418 322.117V316.716H93.1553V315.182ZM98.6756 325.198C100.817 325.198 102.332 324.143 102.766 322.545L100.958 322.219C100.612 323.146 99.7814 323.619 98.6947 323.619C97.0584 323.619 95.9589 322.558 95.9078 320.666H102.888V319.989C102.888 316.441 100.766 315.054 98.5413 315.054C95.8055 315.054 94.003 317.138 94.003 320.155C94.003 323.204 95.78 325.198 98.6756 325.198ZM95.9142 319.234C95.9909 317.841 97.0008 316.633 98.5541 316.633C100.037 316.633 101.009 317.732 101.015 319.234H95.9142ZM104.288 325H106.2V319.004C106.2 317.719 107.19 316.793 108.546 316.793C108.942 316.793 109.389 316.863 109.543 316.908V315.08C109.351 315.054 108.974 315.035 108.731 315.035C107.58 315.035 106.596 315.687 106.238 316.741H106.136V315.182H104.288V325ZM114.261 325.198C117.029 325.198 118.837 323.172 118.837 320.136C118.837 317.08 117.029 315.054 114.261 315.054C111.493 315.054 109.684 317.08 109.684 320.136C109.684 323.172 111.493 325.198 114.261 325.198ZM114.267 323.594C112.458 323.594 111.614 322.015 111.614 320.129C111.614 318.25 112.458 316.652 114.267 316.652C116.063 316.652 116.907 318.25 116.907 320.129C116.907 322.015 116.063 323.594 114.267 323.594ZM122.162 311.909H120.251V325H122.162V311.909Z" fill="black" fill-opacity="0.6"/>
<path d="M309.705 325.179C312.377 325.179 314.339 323.581 314.333 321.408C314.339 319.752 313.336 318.563 311.597 318.295V318.192C312.965 317.841 313.854 316.767 313.847 315.297C313.854 313.373 312.275 311.73 309.756 311.73C307.353 311.73 305.422 313.181 305.359 315.31H307.27C307.314 314.108 308.446 313.379 309.731 313.379C311.067 313.379 311.942 314.191 311.936 315.399C311.942 316.665 310.926 317.496 309.475 317.496H308.369V319.107H309.475C311.29 319.107 312.339 320.027 312.339 321.344C312.339 322.616 311.233 323.479 309.692 323.479C308.273 323.479 307.167 322.75 307.091 321.587H305.084C305.167 323.722 307.059 325.179 309.705 325.179ZM316.47 325H318.535L324.23 313.661V311.909H315.575V313.603H322.185V313.699L316.47 325ZM324.768 325.121C325.465 325.121 326.046 324.553 326.046 323.843C326.046 323.146 325.465 322.571 324.768 322.571C324.065 322.571 323.489 323.146 323.489 323.843C323.489 324.553 324.065 325.121 324.768 325.121ZM327.586 322.443H333.792V325H335.678V322.443H337.41V320.768H335.678V311.909H333.243L327.586 320.845V322.443ZM333.805 320.768H329.657V320.666L333.703 314.261H333.805V320.768ZM342.987 325H344.898V318.947C344.898 317.624 345.825 316.703 346.912 316.703C347.973 316.703 348.708 317.406 348.708 318.474V325H350.613V318.742C350.613 317.56 351.335 316.703 352.582 316.703C353.592 316.703 354.423 317.266 354.423 318.595V325H356.334V318.416C356.334 316.173 355.081 315.054 353.304 315.054C351.891 315.054 350.83 315.732 350.357 316.78H350.255C349.827 315.706 348.925 315.054 347.615 315.054C346.317 315.054 345.352 315.7 344.943 316.78H344.822V315.182H342.987V325ZM362.292 328.886C364.791 328.886 366.722 327.742 366.722 325.217V315.182H364.849V316.773H364.708C364.369 316.166 363.692 315.054 361.864 315.054C359.492 315.054 357.747 316.927 357.747 320.053C357.747 323.185 359.531 324.853 361.851 324.853C363.653 324.853 364.35 323.837 364.695 323.21H364.817V325.141C364.817 326.681 363.762 327.346 362.311 327.346C360.719 327.346 360.099 326.547 359.761 325.984L358.118 326.662C358.636 327.864 359.946 328.886 362.292 328.886ZM362.273 323.268C360.566 323.268 359.678 321.957 359.678 320.027C359.678 318.141 360.547 316.678 362.273 316.678C363.941 316.678 364.836 318.039 364.836 320.027C364.836 322.053 363.922 323.268 362.273 323.268Z" fill="black"/>
</svg>
