<svg width="200" height="60" viewBox="0 0 200 60" fill="none" xmlns="http://www.w3.org/2000/svg">
<rect width="200" height="60" rx="16" fill="#E7FAFE"/>
<path d="M29.7045 24.3636H27.392L31.4886 36H34.0909L38.1932 24.3636H35.875L32.8523 33.5227H32.733L29.7045 24.3636ZM39.3149 36H41.3718V27.2727H39.3149V36ZM40.349 26.0341C41.0024 26.0341 41.5365 25.5341 41.5365 24.9205C41.5365 24.3011 41.0024 23.8011 40.349 23.8011C39.6899 23.8011 39.1559 24.3011 39.1559 24.9205C39.1559 25.5341 39.6899 26.0341 40.349 26.0341ZM47.0305 36.1705C49.0645 36.1705 50.4623 35.1761 50.8259 33.6591L48.9055 33.4432C48.627 34.1818 47.9452 34.5682 47.0589 34.5682C45.7293 34.5682 44.8486 33.6932 44.8316 32.1989H50.9111V31.5682C50.9111 28.5057 49.0702 27.1591 46.9225 27.1591C44.4225 27.1591 42.7918 28.9943 42.7918 31.6875C42.7918 34.4261 44.3998 36.1705 47.0305 36.1705ZM44.8373 30.8125C44.8998 29.6989 45.7236 28.7614 46.9509 28.7614C48.1327 28.7614 48.9282 29.625 48.9395 30.8125H44.8373ZM54.0855 36H56.2332L57.8695 30.1023H57.9889L59.6252 36H61.7673L64.2389 27.2727H62.1366L60.6252 33.375H60.54L58.9718 27.2727H56.898L55.3298 33.4091H55.2502L53.7161 27.2727H51.6195L54.0855 36ZM70.5889 36L71.5491 33.1307H75.9241L76.8901 36H79.1401L75.0378 24.3636H72.4355L68.3389 36H70.5889ZM72.1173 31.4375L73.6912 26.75H73.7821L75.356 31.4375H72.1173ZM82.3186 24.3636H80.2618V36H82.3186V24.3636ZM86.1705 24.3636H84.1137V36H86.1705V24.3636ZM101.665 28.2898C101.307 25.7045 99.3189 24.2045 96.7393 24.2045C93.6995 24.2045 91.4098 26.4205 91.4098 30.1818C91.4098 33.9375 93.6711 36.1591 96.7393 36.1591C99.5064 36.1591 101.342 34.3693 101.665 32.1477L99.5405 32.1364C99.2734 33.5 98.1598 34.267 96.7677 34.267C94.8814 34.267 93.5291 32.8523 93.5291 30.1818C93.5291 27.5568 94.87 26.0966 96.7734 26.0966C98.1882 26.0966 99.2961 26.8977 99.5405 28.2898H101.665ZM105.696 36.1761C107.066 36.1761 107.884 35.5341 108.259 34.8011H108.327V36H110.304V30.1591C110.304 27.8523 108.424 27.1591 106.759 27.1591C104.924 27.1591 103.514 27.9773 103.06 29.5682L104.98 29.8409C105.185 29.2443 105.764 28.733 106.77 28.733C107.725 28.733 108.247 29.2216 108.247 30.0795V30.1136C108.247 30.7045 107.628 30.733 106.088 30.8977C104.395 31.0795 102.776 31.5852 102.776 33.5511C102.776 35.267 104.032 36.1761 105.696 36.1761ZM106.23 34.6648C105.372 34.6648 104.759 34.2727 104.759 33.517C104.759 32.7273 105.446 32.3977 106.367 32.267C106.907 32.1932 107.986 32.0568 108.253 31.8409V32.8693C108.253 33.8409 107.469 34.6648 106.23 34.6648ZM116.41 27.2727H114.689V25.1818H112.632V27.2727H111.393V28.8636H112.632V33.7159C112.621 35.358 113.814 36.1648 115.359 36.1193C115.944 36.1023 116.348 35.9886 116.569 35.9148L116.223 34.3068C116.109 34.3352 115.876 34.3864 115.621 34.3864C115.104 34.3864 114.689 34.2045 114.689 33.375V28.8636H116.41V27.2727ZM121.58 36.1705C123.615 36.1705 125.012 35.1761 125.376 33.6591L123.455 33.4432C123.177 34.1818 122.495 34.5682 121.609 34.5682C120.279 34.5682 119.399 33.6932 119.382 32.1989H125.461V31.5682C125.461 28.5057 123.62 27.1591 121.473 27.1591C118.973 27.1591 117.342 28.9943 117.342 31.6875C117.342 34.4261 118.95 36.1705 121.58 36.1705ZM119.387 30.8125C119.45 29.6989 120.274 28.7614 121.501 28.7614C122.683 28.7614 123.478 29.625 123.49 30.8125H119.387ZM130.677 39.4545C133.035 39.4545 134.773 38.375 134.773 36.142V27.2727H132.745V28.7159H132.631C132.319 28.0852 131.665 27.1591 130.126 27.1591C128.108 27.1591 126.523 28.7386 126.523 31.608C126.523 34.4545 128.108 35.875 130.12 35.875C131.614 35.875 132.313 35.0739 132.631 34.4318H132.733V36.0852C132.733 37.3693 131.881 37.8977 130.711 37.8977C129.472 37.8977 128.927 37.3125 128.677 36.8011L126.824 37.25C127.199 38.4716 128.455 39.4545 130.677 39.4545ZM130.694 34.2614C129.336 34.2614 128.62 33.2045 128.62 31.5966C128.62 30.0114 129.324 28.8466 130.694 28.8466C132.018 28.8466 132.745 29.9432 132.745 31.5966C132.745 33.2614 132.006 34.2614 130.694 34.2614ZM140.368 36.1705C142.925 36.1705 144.55 34.3693 144.55 31.6705C144.55 28.9659 142.925 27.1591 140.368 27.1591C137.811 27.1591 136.186 28.9659 136.186 31.6705C136.186 34.3693 137.811 36.1705 140.368 36.1705ZM140.379 34.5227C138.965 34.5227 138.271 33.2614 138.271 31.6648C138.271 30.0682 138.965 28.7898 140.379 28.7898C141.771 28.7898 142.465 30.0682 142.465 31.6648C142.465 33.2614 141.771 34.5227 140.379 34.5227ZM145.976 36H148.032V30.8693C148.032 29.7614 148.868 28.9773 149.998 28.9773C150.345 28.9773 150.777 29.0398 150.953 29.0966V27.2045C150.765 27.1705 150.441 27.1477 150.214 27.1477C149.214 27.1477 148.379 27.7159 148.061 28.7273H147.97V27.2727H145.976V36ZM151.999 36H154.056V27.2727H151.999V36ZM153.033 26.0341C153.687 26.0341 154.221 25.5341 154.221 24.9205C154.221 24.3011 153.687 23.8011 153.033 23.8011C152.374 23.8011 151.84 24.3011 151.84 24.9205C151.84 25.5341 152.374 26.0341 153.033 26.0341ZM159.715 36.1705C161.749 36.1705 163.147 35.1761 163.51 33.6591L161.59 33.4432C161.311 34.1818 160.63 34.5682 159.743 34.5682C158.414 34.5682 157.533 33.6932 157.516 32.1989H163.596V31.5682C163.596 28.5057 161.755 27.1591 159.607 27.1591C157.107 27.1591 155.476 28.9943 155.476 31.6875C155.476 34.4261 157.084 36.1705 159.715 36.1705ZM157.522 30.8125C157.584 29.6989 158.408 28.7614 159.635 28.7614C160.817 28.7614 161.613 29.625 161.624 30.8125H157.522ZM171.913 29.5795C171.629 28.1023 170.447 27.1591 168.402 27.1591C166.3 27.1591 164.868 28.1932 164.874 29.8068C164.868 31.0795 165.652 31.9205 167.328 32.267L168.817 32.5795C169.618 32.7557 169.993 33.0795 169.993 33.5739C169.993 34.1705 169.345 34.6193 168.368 34.6193C167.425 34.6193 166.811 34.2102 166.635 33.4261L164.629 33.6193C164.885 35.2216 166.231 36.1705 168.374 36.1705C170.555 36.1705 172.095 35.0398 172.101 33.3864C172.095 32.142 171.294 31.3807 169.646 31.0227L168.158 30.7045C167.271 30.5057 166.919 30.1989 166.925 29.6932C166.919 29.1023 167.572 28.6932 168.43 28.6932C169.379 28.6932 169.879 29.2102 170.038 29.7841L171.913 29.5795Z" fill="black"/>
</svg>
